extratorrent.com
 
http://extratorrent.com/torrent/2290145/


                          Another Fine Release Brought to you from - IMAGiNE                  
                                               

********************************************************************************************************************                                
                            Beatdown DVDRiP AC3 XViD - IMAGiNE
********************************************************************************************************************

Ripper ...........: IMAGiNE                                        IMDB Rating.......:No rating yet                          
Video Codec.......: XVID                                         Release Date......:24/08/10
Audio Codec.......:AC3                                           Theatre Date......:31/08/10
Audio Bitrate.....:448                                              Runtime.......:1h 29mn
Subtitles.........:NIL                                                 Language..........:ENGLISH
Resolution...... 704 x 400                                      IMDb URL..........:http://www.imdb.com/title/tt1568323/


DETAILS:

Video
ID                               : 0
Format                           : MPEG-4 Visual
Format profile                   : Advanced Simple@L5
Format settings, BVOP            : Yes
Format settings, QPel            : No
Format settings, GMC             : No warppoints
Format settings, Matrix          : Default (MPEG)
Muxing mode                      : Packed bitstream
Codec ID                         : XVID
Codec ID/Hint                    : XviD
Duration                         : 1h 29mn
Bit rate                         : 1 734 Kbps
Width                            : 704 pixels
Height                           : 400 pixels
Display aspect ratio             : 16/9
Frame rate                       : 23.976 fps
Resolution                       : 24 bits
Colorimetry                      : 4:2:0
Scan type                        : Progressive
Bits/(Pixel*Frame)               : 0.257
Stream size                      : 1.09 GiB (79%)
Writing library                  : XviD 1.2.1 (UTC 2008-12-04)

Audio
ID                               : 1
Format                           : AC-3
Format/Info                      : Audio Coding 3
Codec ID                         : 2000
Duration                         : 1h 29mn
Bit rate mode                    : Constant
Bit rate                         : 448 Kbps
Channel(s)                       : 6 channels
Channel positions                : Front: L C R, Surround: L R, LFE
Sampling rate                    : 48.0 KHz
Stream size                      : 288 MiB (20%)
Alignment                        : Aligned on interleaves
Interleave, duration             : 42 ms (1.00 video frame)
Interleave, preload duration     : 512 ms



SOURCES:

VIDEO:Beatdown.2010.COMPLETE.NTSC.DVDR-KART3LDVD ........Thanks
AUDIO:Beatdown.2010.COMPLETE.NTSC.DVDR-KART3LDVD........ Thanks

NOTES:

IMAGiNE bringing you another release.....Beatdown.2010.

Right first off got to say......whoever made this film done a crap job.There is lots of glares and colours slightly off.
Not knocking Kart3ldvd,but the actually people that film this and then produce it.
We that is our opinion anyway :lol:
Well for this we made a short script to crop 2pixel off the right only,then resize ( 704x gave a better AR then 720x ) ,white
balance,sharpeness,contrast,brightness and rgb eq.Also used the sat/hue..intes filter in vdub to fix some of them glares.
The audio was just a straight forward demux and then remux to our rip.

Enjoy folks


SCREENS: 
http://imagine.takagari.com/beatdown/vlcsnap-305413.png 
http://imagine.takagari.com/beatdown/vlcsnap-305545.png 
http://imagine.takagari.com/beatdown/vlcsnap-306815.png 
http://imagine.takagari.com/beatdown/vlcsnap-307031.png 
http://imagine.takagari.com/beatdown/vlcsnap-307180.png 
http://imagine.takagari.com/beatdown/vlcsnap-307884.png


GREETS:

FLAWL3SS,ViSiON,FUSiON,Rx,SecretMyth,BirdFlu,ELEKTRI4KA and Autotron
And to all the other p2p grps past and present


Looking for these,syncers,cammers,silver supplier.....Have anything to offer????......
Contact us imaginegroup@hushmail.com



